<svg width="128" height="128" viewBox="0 0 128 128" fill="none" xmlns="http://www.w3.org/2000/svg">
<path d="M91.5663 114.654H77.6475C73.4553 114.649 69.436 112.982 66.4724 110.016C63.5088 107.051 61.843 103.031 61.8409 98.839V69.2336H36.4032C35.1412 73.5587 32.3501 77.2776 28.5498 79.6978C24.7496 82.118 20.1992 83.0743 15.7462 82.3888C11.2932 81.7033 7.24115 79.4226 4.34477 75.9715C1.44838 72.5203 -0.0948914 68.1341 0.00237996 63.6297C0.0996513 59.1253 1.83083 54.8098 4.8735 51.4869C7.91617 48.1641 12.0629 46.0604 16.5413 45.5678C21.0198 45.0751 25.5246 46.227 29.2169 48.809C32.9091 51.3909 35.537 55.2269 36.6112 59.6025H61.8329V29.1731C61.835 24.9795 63.5019 20.9582 66.4673 17.9929C69.4326 15.0275 73.4539 13.3607 77.6475 13.3586H91.5663C92.842 9.03713 95.645 5.32674 99.4532 2.91854C103.261 0.510342 107.815 -0.43147 112.266 0.268542C116.717 0.968554 120.762 3.26266 123.647 6.72352C126.533 10.1844 128.062 14.576 127.949 19.0804C127.837 23.5848 126.091 27.8948 123.037 31.2075C119.983 34.5203 115.829 36.6099 111.348 37.0872C106.868 37.5645 102.367 36.3969 98.6831 33.8019C94.9996 31.2068 92.385 27.3613 91.3263 22.9817H77.5915C76.7782 22.9806 75.9726 23.1401 75.2209 23.4509C74.4693 23.7616 73.7863 24.2176 73.2112 24.7928C72.636 25.3679 72.18 26.0509 71.8692 26.8025C71.5585 27.5542 71.399 28.3598 71.4001 29.1731V59.6025H91.3583C92.4324 55.2335 95.0578 51.4038 98.7455 48.8264C102.433 46.2491 106.932 45.0998 111.404 45.5925C115.876 46.0852 120.016 48.1865 123.055 51.5049C126.093 54.8233 127.821 59.1327 127.918 63.6308C128.015 68.1288 126.474 72.5089 123.583 75.9553C120.691 79.4018 116.645 81.6798 112.198 82.3651C107.751 83.0505 103.207 82.0965 99.4118 79.6807C95.6162 77.265 92.828 73.5521 91.5663 69.2336H71.4561V98.839C71.4561 100.48 72.1073 102.053 73.2667 103.214C74.4261 104.375 75.9988 105.028 77.6395 105.03H91.3983C92.4606 100.658 95.0759 96.8211 98.7569 94.2338C102.438 91.6464 106.934 90.4852 111.408 90.9662C115.881 91.4473 120.028 93.538 123.074 96.8488C126.121 100.16 127.861 104.465 127.969 108.963C128.078 113.461 126.547 117.846 123.664 121.299C120.78 124.753 116.739 127.041 112.294 127.737C107.849 128.433 103.302 127.49 99.5006 125.083C95.6991 122.676 92.9021 118.97 91.6303 114.654H91.5583H91.5663Z" fill="url(#paint0_linear_94_5)"/>
<defs>
<linearGradient id="paint0_linear_94_5" x1="126.5" y1="4.5" x2="17" y2="88.5" gradientUnits="userSpaceOnUse">
<stop stop-color="#5699FF"/>
<stop offset="0.995644" stop-color="#2874E8"/>
</linearGradient>
</defs>
</svg>
