<?xml version="1.0" standalone="no"?><!DOCTYPE svg PUBLIC "-//W3C//DTD SVG 1.1//EN" "http://www.w3.org/Graphics/SVG/1.1/DTD/svg11.dtd"><svg t="1759139014880" class="icon" viewBox="0 0 1024 1024" version="1.1" xmlns="http://www.w3.org/2000/svg" p-id="7866" width="128" height="128" xmlns:xlink="http://www.w3.org/1999/xlink"><path d="M732.537884 917.230596h-111.350118a126.580766 126.580766 0 0 1-126.452777-126.516772V553.870844h-203.501939a148.594812 148.594812 0 1 1 1.663852-77.049162h201.774093V233.387287A126.580766 126.580766 0 0 1 621.187766 106.870515h111.350118a148.594812 148.594812 0 1 1-1.91983 76.985168H620.739806a49.46761 49.46761 0 0 0-49.531604 49.531604v243.434395h159.66583a148.402829 148.402829 0 1 1 1.663852 77.049162H571.656162v236.84298a49.531604 49.531604 0 0 0 49.46761 49.531604h110.070231a148.402829 148.402829 0 1 1 1.855835 76.985168h-0.575948z" p-id="7867" fill="#2b7fff"></path></svg>