<svg width="73" height="15" viewBox="0 0 73 15" fill="none" xmlns="http://www.w3.org/2000/svg">
<path d="M1.56 5.4C1.56 5.184 1.608 4.96 1.704 4.728C1.8 4.488 1.928 4.268 2.088 4.068C2.248 3.86 2.42 3.704 2.604 3.6L6.24 1.5V2.7L2.604 4.8V7.44L6.24 5.34V6.54L2.604 8.64V11.28L6.24 9.18V10.38L2.604 12.48C2.324 12.64 2.08 12.66 1.872 12.54C1.664 12.42 1.56 12.2 1.56 11.88V5.4ZM6.24 9.18L2.604 11.28L1.56 10.68L5.196 8.58L6.24 9.18ZM6.24 5.34L2.604 7.44L1.56 6.84L5.196 4.74L6.24 5.34ZM6.24 1.5L2.604 3.6C2.42 3.704 2.248 3.86 2.088 4.068C1.928 4.268 1.8 4.488 1.704 4.728C1.608 4.96 1.56 5.184 1.56 5.4V11.88C1.56 12.2 1.664 12.42 1.872 12.54L0.828 11.94C0.62 11.82 0.516 11.6 0.516 11.28V4.8C0.516 4.584 0.564 4.36 0.66 4.128C0.756 3.888 0.884 3.668 1.044 3.468C1.204 3.26 1.376 3.104 1.56 3L5.196 0.899999L6.24 1.5ZM7.84172 6.12L10.9617 4.32C11.2337 4.16 11.4737 4.14 11.6817 4.26C11.8897 4.38 11.9937 4.6 11.9937 4.92V10.68L10.9617 11.28V10.08C10.9617 10.288 10.9137 10.512 10.8177 10.752C10.7217 10.992 10.5937 11.216 10.4337 11.424C10.2737 11.624 10.1017 11.776 9.91772 11.88L8.88572 12.48C8.60572 12.64 8.36172 12.66 8.15372 12.54C7.94572 12.42 7.84172 12.2 7.84172 11.88V10.2C7.84172 9.984 7.88972 9.76 7.98572 9.528C8.08172 9.288 8.20972 9.068 8.36972 8.868C8.52972 8.66 8.70172 8.504 8.88572 8.4L10.9617 7.2V5.52L7.84172 7.32V6.12ZM8.88572 11.28L10.9617 10.08V8.4L8.88572 9.6V11.28ZM10.9617 5.52V7.2L9.91772 6.6V4.92L10.9617 5.52ZM10.9617 10.08V11.28L9.91772 10.68V9.48L10.9617 10.08ZM10.9617 8.4V10.08L9.91772 9.48V7.8L10.9617 8.4ZM10.9617 10.08L8.88572 11.28L7.84172 10.68L9.91772 9.48L10.9617 10.08ZM10.9617 7.2L8.88572 8.4C8.70172 8.504 8.52972 8.66 8.36972 8.868C8.20972 9.068 8.08172 9.288 7.98572 9.528C7.88972 9.76 7.84172 9.984 7.84172 10.2V11.88C7.84172 12.2 7.94572 12.42 8.15372 12.54L7.10972 11.94C6.90172 11.82 6.79772 11.6 6.79772 11.28V9.6C6.79772 9.384 6.84572 9.16 6.94172 8.928C7.03772 8.688 7.16572 8.468 7.32572 8.268C7.48572 8.06 7.65772 7.904 7.84172 7.8L9.91772 6.6L10.9617 7.2ZM11.6817 4.26C11.4737 4.14 11.2337 4.16 10.9617 4.32L7.84172 6.12L6.79772 5.52L9.91772 3.72C10.1977 3.56 10.4417 3.54 10.6497 3.66L11.6817 4.26ZM7.84172 6.12V7.32L6.79772 6.72V5.52L7.84172 6.12ZM14.6401 9.6C14.3601 9.76 14.1161 9.78 13.9081 9.66C13.7001 9.54 13.5961 9.32 13.5961 9V7.8C13.5961 7.584 13.6441 7.36 13.7401 7.128C13.8361 6.888 13.9641 6.668 14.1241 6.468C14.2841 6.26 14.4561 6.104 14.6401 6L17.7481 4.2V5.4L14.6401 7.2V8.4L16.7161 7.2C16.9881 7.04 17.2281 7.02 17.4361 7.14C17.6441 7.26 17.7481 7.48 17.7481 7.8V9C17.7481 9.208 17.7001 9.432 17.6041 9.672C17.5081 9.912 17.3801 10.136 17.2201 10.344C17.0681 10.544 16.9001 10.696 16.7161 10.8L13.5961 12.6V11.4L16.7161 9.6V8.4L14.6401 9.6ZM16.7161 8.4V9.6L15.6721 9V7.8L16.7161 8.4ZM16.7161 9.6L13.5961 11.4L12.5521 10.8L15.6721 9L16.7161 9.6ZM13.5961 11.4V12.6L12.5521 12V10.8L13.5961 11.4ZM17.4361 7.14C17.2281 7.02 16.9881 7.04 16.7161 7.2L14.6401 8.4L13.5961 7.8L15.6721 6.6C15.9521 6.44 16.1961 6.42 16.4041 6.54L17.4361 7.14ZM17.7481 4.2L14.6401 6C14.4561 6.104 14.2841 6.26 14.1241 6.468C13.9641 6.668 13.8361 6.888 13.7401 7.128C13.6441 7.36 13.5961 7.584 13.5961 7.8V9C13.5961 9.32 13.7001 9.54 13.9081 9.66L12.8641 9.06C12.6561 8.94 12.5521 8.72 12.5521 8.4V7.2C12.5521 6.984 12.6001 6.76 12.6961 6.528C12.7921 6.288 12.9201 6.068 13.0801 5.868C13.2401 5.66 13.4121 5.504 13.5961 5.4L16.7161 3.6L17.7481 4.2ZM20.3945 10.92C20.1145 11.08 19.8705 11.1 19.6625 10.98C19.4545 10.86 19.3505 10.64 19.3505 10.32V6.6L20.3945 6V9.72L22.4705 8.52V4.8L23.5025 4.2V10.68C23.5025 10.888 23.4545 11.112 23.3585 11.352C23.2625 11.592 23.1345 11.812 22.9745 12.012C22.8225 12.22 22.6545 12.376 22.4705 12.48L19.3505 14.28V13.08L22.4705 11.28V8.52C22.4705 8.728 22.4225 8.952 22.3265 9.192C22.2305 9.432 22.1025 9.656 21.9425 9.864C21.7825 10.064 21.6105 10.216 21.4265 10.32L20.3945 10.92ZM22.4705 8.52V11.28L21.4265 10.68V7.92L22.4705 8.52ZM22.4705 11.28L19.3505 13.08L18.3065 12.48L21.4265 10.68L22.4705 11.28ZM19.3505 13.08V14.28L18.3065 13.68V12.48L19.3505 13.08ZM23.5025 4.2L22.4705 4.8L21.4265 4.2L22.4705 3.6L23.5025 4.2ZM22.4705 4.8V8.52L21.4265 7.92V4.2L22.4705 4.8ZM22.4705 8.52L20.3945 9.72L19.3505 9.12L21.4265 7.92L22.4705 8.52ZM20.3945 6L19.3505 6.6L18.3065 6L19.3505 5.4L20.3945 6ZM19.3505 6.6V10.32C19.3505 10.64 19.4545 10.86 19.6625 10.98L18.6185 10.38C18.4105 10.26 18.3065 10.04 18.3065 9.72V6L19.3505 6.6ZM31.486 1.56C31.758 1.4 31.998 1.38 32.206 1.5C32.414 1.62 32.518 1.84 32.518 2.16V8.64C32.518 8.856 32.47 9.084 32.374 9.324C32.278 9.556 32.15 9.776 31.99 9.984C31.838 10.184 31.67 10.336 31.486 10.44L29.818 11.4C29.546 11.56 29.306 11.58 29.098 11.46C28.89 11.34 28.786 11.12 28.786 10.8L31.486 9.24V2.76L28.786 4.32V12L27.742 12.6V3.72L31.486 1.56ZM31.486 2.76V9.24L30.442 8.64V2.16L31.486 2.76ZM31.486 9.24L28.786 10.8L27.742 10.2L30.442 8.64L31.486 9.24ZM28.786 10.8C28.786 11.12 28.89 11.34 29.098 11.46L28.054 10.86C27.846 10.74 27.742 10.52 27.742 10.2L28.786 10.8ZM32.206 1.5C31.998 1.38 31.758 1.4 31.486 1.56L27.742 3.72L26.698 3.12L30.442 0.96C30.714 0.799999 30.958 0.779999 31.174 0.899999L32.206 1.5ZM27.742 3.72V12.6L26.698 12V3.12L27.742 3.72ZM34.1292 6.12L37.2492 4.32C37.5212 4.16 37.7612 4.14 37.9692 4.26C38.1772 4.38 38.2812 4.6 38.2812 4.92V10.68L37.2492 11.28V10.08C37.2492 10.288 37.2012 10.512 37.1052 10.752C37.0092 10.992 36.8812 11.216 36.7212 11.424C36.5612 11.624 36.3892 11.776 36.2052 11.88L35.1732 12.48C34.8932 12.64 34.6492 12.66 34.4412 12.54C34.2332 12.42 34.1292 12.2 34.1292 11.88V10.2C34.1292 9.984 34.1772 9.76 34.2732 9.528C34.3692 9.288 34.4972 9.068 34.6572 8.868C34.8172 8.66 34.9892 8.504 35.1732 8.4L37.2492 7.2V5.52L34.1292 7.32V6.12ZM35.1732 11.28L37.2492 10.08V8.4L35.1732 9.6V11.28ZM37.2492 5.52V7.2L36.2052 6.6V4.92L37.2492 5.52ZM37.2492 10.08V11.28L36.2052 10.68V9.48L37.2492 10.08ZM37.2492 8.4V10.08L36.2052 9.48V7.8L37.2492 8.4ZM37.2492 10.08L35.1732 11.28L34.1292 10.68L36.2052 9.48L37.2492 10.08ZM37.2492 7.2L35.1732 8.4C34.9892 8.504 34.8172 8.66 34.6572 8.868C34.4972 9.068 34.3692 9.288 34.2732 9.528C34.1772 9.76 34.1292 9.984 34.1292 10.2V11.88C34.1292 12.2 34.2332 12.42 34.4412 12.54L33.3972 11.94C33.1892 11.82 33.0852 11.6 33.0852 11.28V9.6C33.0852 9.384 33.1332 9.16 33.2292 8.928C33.3252 8.688 33.4532 8.468 33.6132 8.268C33.7732 8.06 33.9452 7.904 34.1292 7.8L36.2052 6.6L37.2492 7.2ZM37.9692 4.26C37.7612 4.14 37.5212 4.16 37.2492 4.32L34.1292 6.12L33.0852 5.52L36.2052 3.72C36.4852 3.56 36.7292 3.54 36.9372 3.66L37.9692 4.26ZM34.1292 6.12V7.32L33.0852 6.72V5.52L34.1292 6.12ZM40.3996 7.5L39.3676 8.1V6.9L40.3996 6.3V5.1L41.4436 4.5V6.9C41.4436 6.684 41.4916 6.46 41.5876 6.228C41.6836 5.988 41.8076 5.768 41.9596 5.568C42.1196 5.36 42.2916 5.204 42.4756 5.1L43.5196 4.5V5.7L41.4436 6.9V11.46L43.5196 10.26V11.46L41.4436 12.66C41.1636 12.82 40.9196 12.84 40.7116 12.72C40.5036 12.6 40.3996 12.38 40.3996 12.06V7.5ZM43.5196 10.26L41.4436 11.46L40.3996 10.86L42.4756 9.66L43.5196 10.26ZM43.5196 4.5L42.4756 5.1C42.2916 5.204 42.1196 5.36 41.9596 5.568C41.8076 5.768 41.6836 5.988 41.5876 6.228C41.4916 6.46 41.4436 6.684 41.4436 6.9L40.3996 6.3C40.3996 6.084 40.4476 5.86 40.5436 5.628C40.6396 5.388 40.7676 5.168 40.9276 4.968C41.0876 4.76 41.2596 4.604 41.4436 4.5L42.4756 3.9L43.5196 4.5ZM40.3996 6.3L39.3676 6.9L38.3236 6.3L39.3676 5.7L40.3996 6.3ZM40.3996 7.5V12.06C40.3996 12.38 40.5036 12.6 40.7116 12.72L39.6796 12.12C39.4716 12 39.3676 11.78 39.3676 11.46V6.9L40.3996 7.5ZM41.4436 4.5L40.3996 5.1L39.3676 4.5L40.3996 3.9L41.4436 4.5ZM40.3996 5.1V6.3L39.3676 5.7V4.5L40.3996 5.1ZM39.3676 6.9V8.1L38.3236 7.5V6.3L39.3676 6.9ZM45.1106 6.12L48.2306 4.32C48.5026 4.16 48.7426 4.14 48.9506 4.26C49.1586 4.38 49.2626 4.6 49.2626 4.92V10.68L48.2306 11.28V10.08C48.2306 10.288 48.1826 10.512 48.0866 10.752C47.9906 10.992 47.8626 11.216 47.7026 11.424C47.5426 11.624 47.3706 11.776 47.1866 11.88L46.1546 12.48C45.8746 12.64 45.6306 12.66 45.4226 12.54C45.2146 12.42 45.1106 12.2 45.1106 11.88V10.2C45.1106 9.984 45.1586 9.76 45.2546 9.528C45.3506 9.288 45.4786 9.068 45.6386 8.868C45.7986 8.66 45.9706 8.504 46.1546 8.4L48.2306 7.2V5.52L45.1106 7.32V6.12ZM46.1546 11.28L48.2306 10.08V8.4L46.1546 9.6V11.28ZM48.2306 5.52V7.2L47.1866 6.6V4.92L48.2306 5.52ZM48.2306 10.08V11.28L47.1866 10.68V9.48L48.2306 10.08ZM48.2306 8.4V10.08L47.1866 9.48V7.8L48.2306 8.4ZM48.2306 10.08L46.1546 11.28L45.1106 10.68L47.1866 9.48L48.2306 10.08ZM48.2306 7.2L46.1546 8.4C45.9706 8.504 45.7986 8.66 45.6386 8.868C45.4786 9.068 45.3506 9.288 45.2546 9.528C45.1586 9.76 45.1106 9.984 45.1106 10.2V11.88C45.1106 12.2 45.2146 12.42 45.4226 12.54L44.3786 11.94C44.1706 11.82 44.0666 11.6 44.0666 11.28V9.6C44.0666 9.384 44.1146 9.16 44.2106 8.928C44.3066 8.688 44.4346 8.468 44.5946 8.268C44.7546 8.06 44.9266 7.904 45.1106 7.8L47.1866 6.6L48.2306 7.2ZM48.9506 4.26C48.7426 4.14 48.5026 4.16 48.2306 4.32L45.1106 6.12L44.0666 5.52L47.1866 3.72C47.4666 3.56 47.7106 3.54 47.9186 3.66L48.9506 4.26ZM45.1106 6.12V7.32L44.0666 6.72V5.52L45.1106 6.12ZM50.865 5.4C50.865 5.184 50.913 4.96 51.009 4.728C51.105 4.488 51.233 4.268 51.393 4.068C51.553 3.86 51.725 3.704 51.909 3.6L55.545 1.5V2.7L51.909 4.8V9C51.909 8.784 51.957 8.56 52.053 8.328C52.149 8.088 52.273 7.868 52.425 7.668C52.585 7.46 52.757 7.304 52.941 7.2L55.545 5.7V6.9L51.909 9V12L50.865 12.6V5.4ZM55.545 5.7L52.941 7.2C52.757 7.304 52.585 7.46 52.425 7.668C52.273 7.868 52.149 8.088 52.053 8.328C51.957 8.56 51.909 8.784 51.909 9L50.865 8.4C50.865 8.184 50.913 7.96 51.009 7.728C51.105 7.488 51.233 7.268 51.393 7.068C51.553 6.86 51.725 6.704 51.909 6.6L54.501 5.1L55.545 5.7ZM55.545 1.5L51.909 3.6C51.725 3.704 51.553 3.86 51.393 4.068C51.233 4.268 51.105 4.488 51.009 4.728C50.913 4.96 50.865 5.184 50.865 5.4V12.6L49.821 12V4.8C49.821 4.584 49.869 4.36 49.965 4.128C50.061 3.888 50.189 3.668 50.349 3.468C50.509 3.26 50.681 3.104 50.865 3L54.501 0.899999L55.545 1.5ZM58.1907 11.28L59.7387 10.38V11.58L58.1907 12.48C57.9107 12.64 57.6667 12.66 57.4587 12.54C57.2507 12.42 57.1467 12.2 57.1467 11.88V3L58.1907 2.4V11.28ZM58.1907 2.4L57.1467 3L56.1027 2.4L57.1467 1.8L58.1907 2.4ZM59.7387 10.38L58.1907 11.28L57.1467 10.68L58.7067 9.78L59.7387 10.38ZM57.1467 3V11.88C57.1467 12.2 57.2507 12.42 57.4587 12.54L56.4147 11.94C56.2067 11.82 56.1027 11.6 56.1027 11.28V2.4L57.1467 3ZM62.3865 5.52L64.4625 4.32C64.7345 4.16 64.9745 4.14 65.1825 4.26C65.3905 4.38 65.4945 4.6 65.4945 4.92V9.48C65.4945 9.688 65.4465 9.912 65.3505 10.152C65.2545 10.392 65.1265 10.616 64.9665 10.824C64.8145 11.024 64.6465 11.176 64.4625 11.28L62.3865 12.48C62.1065 12.64 61.8625 12.66 61.6545 12.54C61.4465 12.42 61.3425 12.2 61.3425 11.88V7.32C61.3425 7.104 61.3905 6.88 61.4865 6.648C61.5825 6.408 61.7105 6.188 61.8705 5.988C62.0305 5.78 62.2025 5.624 62.3865 5.52ZM62.3865 11.28L64.4625 10.08V5.52L62.3865 6.72V11.28ZM64.4625 5.52V10.08L63.4185 9.48V4.92L64.4625 5.52ZM64.4625 10.08L62.3865 11.28L61.3425 10.68L63.4185 9.48L64.4625 10.08ZM65.1825 4.26C64.9745 4.14 64.7345 4.16 64.4625 4.32L62.3865 5.52C62.2025 5.624 62.0305 5.78 61.8705 5.988C61.7105 6.188 61.5825 6.408 61.4865 6.648C61.3905 6.88 61.3425 7.104 61.3425 7.32V11.88C61.3425 12.2 61.4465 12.42 61.6545 12.54L60.6105 11.94C60.4025 11.82 60.2985 11.6 60.2985 11.28V6.72C60.2985 6.504 60.3465 6.28 60.4425 6.048C60.5385 5.808 60.6665 5.588 60.8265 5.388C60.9865 5.18 61.1585 5.024 61.3425 4.92L63.4185 3.72C63.6985 3.56 63.9425 3.54 64.1505 3.66L65.1825 4.26ZM69.4849 5.22L70.5289 4.62V10.5L71.8729 9.72V3.84L72.9169 3.24V7.92C72.9169 8.128 72.8689 8.352 72.7729 8.592C72.6769 8.832 72.5489 9.056 72.3889 9.264C72.2289 9.464 72.0569 9.616 71.8729 9.72C71.8729 9.928 71.8249 10.152 71.7289 10.392C71.6329 10.632 71.5049 10.856 71.3449 11.064C71.1929 11.264 71.0249 11.416 70.8409 11.52L69.1729 12.48C68.9009 12.64 68.6609 12.66 68.4529 12.54C68.2449 12.42 68.1409 12.2 68.1409 11.88L69.4849 11.1V5.22ZM67.0969 6.6L68.1409 6V11.88C67.8609 12.04 67.6169 12.06 67.4089 11.94C67.2009 11.82 67.0969 11.6 67.0969 11.28V6.6ZM69.4849 11.1L68.1409 11.88L67.0969 11.28L68.4409 10.5L69.4849 11.1ZM68.1409 11.88C68.1409 12.2 68.2449 12.42 68.4529 12.54L67.4089 11.94C67.2009 11.82 67.0969 11.6 67.0969 11.28L68.1409 11.88ZM72.9169 3.24L71.8729 3.84L70.8409 3.24L71.8729 2.64L72.9169 3.24ZM71.8729 3.84V9.72L70.8409 9.12V3.24L71.8729 3.84ZM71.8729 9.72L70.5289 10.5L69.4849 9.9L70.8409 9.12L71.8729 9.72ZM70.5289 4.62L69.4849 5.22L68.4409 4.62L69.4849 4.02L70.5289 4.62ZM69.4849 5.22V11.1L68.4409 10.5V4.62L69.4849 5.22ZM68.1409 6L67.0969 6.6L66.0529 6L67.0969 5.4L68.1409 6ZM67.0969 6.6V11.28C67.0969 11.6 67.2009 11.82 67.4089 11.94L66.3649 11.34C66.1569 11.22 66.0529 11 66.0529 10.68V6L67.0969 6.6Z" fill="black"/>
</svg>
